<?xml version="1.0" encoding="UTF-8" ?>
<!DOCTYPE svg PUBLIC "-//W3C//DTD SVG 1.1//EN" "http://www.w3.org/Graphics/SVG/1.1/DTD/svg11.dtd">
<svg width="712pt" height="525pt" viewBox="0 0 712 525" version="1.1" xmlns="http://www.w3.org/2000/svg">
<g id="#ffffffff">
</g>
<g id="#000000ff">
<path fill="#000000" opacity="1.00" d=" M 0.56 0.00 L 153.33 0.00 C 159.88 0.71 166.38 1.87 173.01 1.73 C 194.58 3.86 216.58 4.32 237.51 10.52 C 255.09 16.29 273.03 22.60 287.54 34.45 C 293.79 39.87 300.38 44.90 306.18 50.81 C 320.49 65.22 332.58 82.17 339.74 101.27 C 347.43 121.25 350.14 142.72 351.41 163.97 C 351.34 173.62 351.96 183.33 350.97 192.95 C 349.33 217.63 344.59 242.74 332.73 264.71 C 318.38 290.80 294.12 310.47 266.99 322.15 C 259.47 325.50 251.75 328.40 243.89 330.84 C 280.78 387.98 318.10 444.85 355.15 501.89 C 360.33 509.55 365.00 517.56 370.48 525.00 L 224.59 525.00 C 174.29 444.02 124.31 362.84 74.09 281.80 C 72.25 278.82 70.42 275.82 68.77 272.73 C 83.51 272.64 98.26 272.71 113.00 272.69 C 141.96 273.28 170.97 266.02 196.55 252.52 C 209.33 245.94 218.33 233.39 221.78 219.58 C 226.33 201.56 225.74 182.24 220.31 164.48 C 215.91 150.78 207.28 138.87 197.37 128.61 C 195.67 126.82 193.49 125.60 191.27 124.57 C 178.71 118.69 164.71 117.13 151.00 116.76 C 100.86 116.73 50.71 116.81 0.56 116.72 C 0.60 77.81 0.61 38.91 0.56 0.00 Z" />
<path fill="#000000" opacity="1.00" d=" M 556.21 3.16 C 604.61 3.12 653.01 2.98 701.40 3.23 C 684.75 27.97 668.27 52.82 651.68 77.60 C 610.25 139.80 568.57 201.83 527.28 264.10 C 531.72 271.36 537.04 278.07 541.82 285.12 C 577.54 335.73 613.23 386.37 648.95 437.00 C 669.72 466.31 690.21 495.85 711.20 525.00 L 556.15 525.00 C 504.15 453.24 452.40 381.30 400.48 309.48 C 394.49 300.88 387.92 292.65 382.25 283.85 C 383.97 279.93 386.60 276.50 388.77 272.83 C 444.58 182.94 500.50 93.11 556.21 3.16 Z" />
</g>
</svg>
